<svg xmlns="http://www.w3.org/2000/svg" xmlns:xlink="http://www.w3.org/1999/xlink" viewBox="2881 2051 140 140"><defs><style>.a{fill:url(#a);}.b{fill:#fff;}.c{filter:url(#b);}</style><linearGradient id="a" x1="0.5" x2="0.5" y2="1" gradientUnits="objectBoundingBox"><stop offset="0" stop-color="#fcac08"/><stop offset="1" stop-color="#e39900"/></linearGradient><filter id="b" x="2881" y="2051" width="140" height="140" filterUnits="userSpaceOnUse"><feOffset dy="3" input="SourceAlpha"/><feGaussianBlur stdDeviation="3" result="c"/><feFlood flood-opacity="0.161"/><feComposite operator="in" in2="c"/><feComposite in="SourceGraphic"/></filter></defs><g transform="translate(2407 466)"><g class="c" transform="matrix(1, 0, 0, 1, -2407, -466)"><circle class="a" cx="61" cy="61" r="61" transform="translate(2890 2057)"/></g><g transform="translate(515 1621)"><path class="b" d="M59,0H1A.945.945,0,0,0,0,1V59a.945.945,0,0,0,1,1H59a.945.945,0,0,0,1-1V1A.945.945,0,0,0,59,0ZM58,58H2V2H58Z"/><path class="b" d="M5,22H55a.945.945,0,0,0,1-1V5a.945.945,0,0,0-1-1H5A.945.945,0,0,0,4,5V21A.945.945,0,0,0,5,22ZM6,6H54V20H6Z"/><path class="b" d="M5,38H25a.945.945,0,0,0,1-1V25a.945.945,0,0,0-1-1H5a.945.945,0,0,0-1,1V37A.945.945,0,0,0,5,38ZM6,26H24V36H6Z"/><rect class="b" width="6" height="2" transform="translate(28 24)"/><rect class="b" width="28" height="2" transform="translate(28 28)"/><rect class="b" width="28" height="2" transform="translate(28 32)"/><rect class="b" width="28" height="2" transform="translate(28 36)"/><rect class="b" width="6" height="2" transform="translate(36 24)"/><path class="b" d="M5,48h6a.945.945,0,0,0,1-1V41a.945.945,0,0,0-1-1H5a.945.945,0,0,0-1,1v6A.945.945,0,0,0,5,48Zm1-6h4v4H6Z"/><rect class="b" width="2" height="2" transform="translate(14 41)"/><rect class="b" width="12" height="2" transform="translate(14 45)"/><rect class="b" width="2" height="2" transform="translate(18 41)"/><path class="b" d="M42,47V41a.945.945,0,0,0-1-1H35a.945.945,0,0,0-1,1v6a.945.945,0,0,0,1,1h6A.945.945,0,0,0,42,47Zm-2-1H36V42h4Z"/><rect class="b" width="2" height="2" transform="translate(44 41)"/><rect class="b" width="12" height="2" transform="translate(44 45)"/><rect class="b" width="2" height="2" transform="translate(48 41)"/><rect class="b" width="2" height="2" transform="translate(52 41)"/><rect class="b" width="2" height="2" transform="translate(22 41)"/><rect class="b" width="2" height="2" transform="translate(5 52)"/><rect class="b" width="2" height="2" transform="translate(9 52)"/><rect class="b" width="2" height="2" transform="translate(13 52)"/><rect class="b" width="2" height="2" transform="translate(17 52)"/><rect class="b" width="2" height="2" transform="translate(21 52)"/><rect class="b" width="2" height="2" transform="translate(25 52)"/><rect class="b" width="2" height="2" transform="translate(29 52)"/><rect class="b" width="2" height="2" transform="translate(33 52)"/><rect class="b" width="2" height="2" transform="translate(37 52)"/><rect class="b" width="2" height="2" transform="translate(41 52)"/><rect class="b" width="2" height="2" transform="translate(45 52)"/><rect class="b" width="2" height="2" transform="translate(49 52)"/><rect class="b" width="2" height="2" transform="translate(53 52)"/></g></g></svg>