<svg xmlns="http://www.w3.org/2000/svg" xmlns:xlink="http://www.w3.org/1999/xlink" viewBox="3281 2050 140 140"><defs><style>.a{fill:url(#a);}.b{fill:#fff;}.c{filter:url(#b);}</style><linearGradient id="a" x1="0.5" x2="0.5" y2="1" gradientUnits="objectBoundingBox"><stop offset="0" stop-color="#fcac08"/><stop offset="1" stop-color="#e39900"/></linearGradient><filter id="b" x="3281" y="2050" width="140" height="140" filterUnits="userSpaceOnUse"><feOffset dy="3" input="SourceAlpha"/><feGaussianBlur stdDeviation="3" result="c"/><feFlood flood-opacity="0.161"/><feComposite operator="in" in2="c"/><feComposite in="SourceGraphic"/></filter></defs><g transform="translate(2806 466)"><g class="c" transform="matrix(1, 0, 0, 1, -2806, -466)"><circle class="a" cx="61" cy="61" r="61" transform="translate(3290 2056)"/></g><g transform="translate(515 1620.5)"><path class="b" d="M59,55.5v-39H47v39H44v-31H32v31H29v-23H17v23H14v-14H2v14H1a1,1,0,0,0,0,2H59a1,1,0,0,0,0-2Zm-55,0v-12h8v12Zm15,0v-21h8v21Zm15,0v-29h8v29Zm15,0v-37h8v37Z"/><path class="b" d="M8.03,27.83a1,1,0,0,0,.5-.134L44.8,6.756l-2.27,4.99a1,1,0,0,0,.5,1.324.982.982,0,0,0,.414.09,1,1,0,0,0,.911-.586l3.562-7.83c.011-.025.009-.052.018-.078a.97.97,0,0,0,.044-.16A.731.731,0,0,0,48,4.426c0-.012,0-.022,0-.034a1.029,1.029,0,0,0,0-.111,1.006,1.006,0,0,0-.024-.162A.885.885,0,0,0,47.942,4a1.042,1.042,0,0,0-.049-.1c-.013-.023-.013-.05-.027-.074s-.038-.038-.054-.061a.822.822,0,0,0-.062-.092.955.955,0,0,0-.089-.078,1.033,1.033,0,0,0-.128-.1.977.977,0,0,0-.093-.059c-.011-.005-.017-.015-.028-.02s-.052-.009-.077-.018a.968.968,0,0,0-.166-.044.629.629,0,0,0-.074-.022L38.533,2.5a1,1,0,0,0-.194,1.99l5.456.529L7.529,25.964a1,1,0,0,0,.5,1.866Z"/></g></g></svg>