<svg xmlns="http://www.w3.org/2000/svg" xmlns:xlink="http://www.w3.org/1999/xlink" viewBox="2480 1658 140 140">
  <defs>
    <style>
      .cls-1 {
        fill: url(#linear-gradient);
      }

      .cls-2 {
        fill: #fff;
      }

      .cls-3 {
        filter: url(#Ellipse_11);
      }
    </style>
    <linearGradient id="linear-gradient" x1="0.5" x2="0.5" y2="1" gradientUnits="objectBoundingBox">
      <stop offset="0" stop-color="#fcac08"/>
      <stop offset="1" stop-color="#e39900"/>
    </linearGradient>
    <filter id="Ellipse_11" x="2480" y="1658" width="140" height="140" filterUnits="userSpaceOnUse">
      <feOffset dy="3" input="SourceAlpha"/>
      <feGaussianBlur stdDeviation="3" result="blur"/>
      <feFlood flood-opacity="0.161"/>
      <feComposite operator="in" in2="blur"/>
      <feComposite in="SourceGraphic"/>
    </filter>
  </defs>
  <g id="вв" transform="translate(2005 74)">
    <g class="cls-3" transform="matrix(1, 0, 0, 1, -2005, -74)">
      <circle id="Ellipse_11-2" data-name="Ellipse 11" class="cls-1" cx="61" cy="61" r="61" transform="translate(2489 1664)"/>
    </g>
    <path id="coins" class="cls-2" d="M59.989,21c-.1-1.711-2.134-3.048-6.2-4.068A2.255,2.255,0,0,0,54,16V9h-.017C53.625,3.172,29.743,3,27,3S.375,3.172.017,9H0v.13H0V16c0,1.9,2.457,3.387,6.105,4.494a2.193,2.193,0,0,0-.09.507H6v.13H6v6.857C2.07,29,.107,30.317.01,32H0v.13H0V39c0,1.323,1.2,2.445,3.148,3.38A2.2,2.2,0,0,0,3.015,43H3v.13H3V50c.008,3.326,7.5,5.391,15.818,6.355a.918.918,0,0,0,.182.037c.019,0,.035-.01.054-.011,1.6.181,3.234.322,4.847.423a.826.826,0,0,0,.1.02c.019,0,.034-.01.052-.011C26.1,56.937,28.115,57,30,57s3.9-.063,5.948-.188c.018,0,.034.011.052.011.035,0,.065-.017.1-.02,1.613-.1,3.243-.241,4.847-.423.019,0,.035.01.054.01a.918.918,0,0,0,.182-.037C49.5,55.389,56.991,53.323,57,50V43h-.016c-.07-1.226-1.115-2.249-3.179-3.1A2.236,2.236,0,0,0,54,39V32.46c3.59-1.1,5.995-2.581,6-4.464V21Zm-8.1,18.321-.341.3A8.947,8.947,0,0,1,49,41V36.232a14.882,14.882,0,0,0,3-1.376v4.138A.636.636,0,0,1,51.892,39.321ZM29.526,43.968c-.146,0-.293.006-.44.009-.357.007-.723.009-1.085.012V38.994q.412,0,.825-.012l.159,0q1.51-.029,3.016-.1v4.993q-.321.017-.646.03C30.753,43.933,30.145,43.953,29.526,43.968Zm-4.367.014q-.687-.012-1.367-.033l-.168-.006q-.818-.027-1.623-.067V38.884q1.5.071,3.016.1l.158,0q.412.008.825.012v5c-.194,0-.388,0-.581-.005C25.331,43.986,25.246,43.983,25.159,43.982ZM7.1,41.7,7,41.674V36.843c.934.252,1.938.482,3,.691v4.881q-1.377-.292-2.536-.61C7.342,41.77,7.216,41.737,7.1,41.7Zm21.078,8.281q.412.008.825.012v5q-2.073-.02-4-.116V49.885q1.5.071,3.016.1Zm3.809,0q1.51-.029,3.016-.1v4.993q-1.926.094-4,.116v-5q.412,0,.825-.012ZM40,49.528v4.966q-1.441.152-3,.263V49.77C38.014,49.7,39.016,49.623,40,49.528Zm2-.216q1.546-.186,3-.422V53.8q-1.413.249-3,.458Zm5-.779c1.062-.209,2.066-.439,3-.691v4.831c-.891.257-1.894.506-3,.741Zm-34,0v4.881c-1.106-.235-2.109-.484-3-.741V47.842C10.934,48.094,11.938,48.325,13,48.533Zm2,.358q1.452.236,3,.422v4.946q-1.585-.208-3-.458Zm5,.637c.984.1,1.986.176,3,.243v4.987q-1.558-.11-3-.263Zm-2.481-5.98-.3-.031L17,43.494V38.529c.984.1,1.986.176,3,.243v4.983C19.16,43.695,18.33,43.627,17.519,43.548ZM15,38.312v4.946q-1.586-.208-3-.458V37.89Q13.452,38.126,15,38.312Zm19.666,5.4-.666.05V38.771c1.014-.067,2.016-.147,3-.243v4.966c-.618.065-1.25.126-1.9.179C34.956,43.686,34.811,43.7,34.666,43.708ZM39,43.258V38.312q1.546-.186,3-.422V42.8Q40.587,43.049,39,43.258Zm5-5.725c1.062-.209,2.066-.439,3-.691v4.831c-.891.257-1.894.506-3,.741ZM30.325,32.965c-.752-.019-1.487-.048-2.209-.083L28,32.877V27.884q1.5.071,3.016.1l.158,0q.412.007.825.012v4.993c-.487-.005-.978-.007-1.453-.018ZM7,18.674V13.843c.934.252,1.938.482,3,.691v4.881l-.37-.078c-.532-.117-1.051-.239-1.547-.368C7.7,18.872,7.346,18.773,7,18.674Zm18.175-2.691q.412.008.825.012v4.993c-1.346-.013-2.684-.048-4-.114V15.885q1.5.07,3.016.1Zm3.809,0q1.51-.029,3.016-.1v4.989c-.17.008-.333.02-.5.028l-.043,0c-.671.03-1.355.052-2.048.068l-.324.007c-.356.007-.72.008-1.081.012V15.995q.412,0,.825-.012Zm22.787.5-.028-.006-.364.283A9.726,9.726,0,0,1,49,17.988V13.231a14.881,14.881,0,0,0,3-1.376v4.138A.785.785,0,0,1,51.771,16.482ZM39,20.252v-4.94q1.546-.186,3-.422v4.9C41.052,19.96,40.054,20.114,39,20.252Zm5-.845V14.534c1.062-.209,2.066-.439,3-.691v4.82C46.1,18.924,45.1,19.173,44,19.407Zm-7-3.879v4.96q-1.449.153-3,.265V15.771C35.014,15.7,36.016,15.623,37,15.528ZM17,20.49V15.528c.984.1,1.986.176,3,.243v4.978C18.982,20.676,17.978,20.593,17,20.49Zm-2-5.178v4.941c-.2-.026-.4-.047-.6-.074l-.376-.055q-.867-.125-1.7-.265L12,19.8v-4.91Q13.452,15.125,15,15.312ZM25.752,32.739l-.405-.03q-.96-.075-1.875-.166l-.392-.04c-.027,0-.053-.007-.08-.009V27.528c.984.095,1.986.176,3,.243v4.984Zm-6.607-.747c-.4-.063-.768-.131-1.145-.2v-4.9q1.452.235,3,.422v4.946c-.612-.081-1.211-.165-1.786-.255Q19.179,32,19.145,31.992ZM16,26.533v4.873q-1.657-.355-3-.751V25.842C13.934,26.094,14.938,26.325,16,26.533Zm-5-1.3v4.751A6.239,6.239,0,0,1,8.084,28.2l-.067-.112A.632.632,0,0,1,8,28V23.855A14.881,14.881,0,0,0,11,25.231ZM34.984,27.98q1.51-.028,3.016-.1v4.988c-1.314.065-2.65.1-4,.115V27.995l.825-.012Zm12.923,3.837c-.439.076-.882.151-1.337.22-.261.04-.528.078-.8.116-.253.036-.516.067-.773.1V27.312q1.546-.186,3-.422V31.8Zm-6.771.854c-.373.031-.758.051-1.136.078V27.771c1.014-.067,2.016-.147,3-.243v4.961c-.581.061-1.161.122-1.758.172ZM52.564,30.8c-.5.139-1.025.269-1.563.4-.249.058-.5.116-.763.172-.077.017-.159.032-.237.049V26.534c1.062-.209,2.066-.439,3-.691v4.831Zm5.425-9.731c-.092.679-1.631,1.582-4.378,2.431h0a67.122,67.122,0,0,1-16.09,2.4c-.359.015-.717.03-1.083.042-.3.01-.6.019-.9.027C34.706,25.987,33.866,26,33,26s-1.706-.013-2.534-.032c-.3-.007-.6-.017-.9-.027-.367-.011-.725-.027-1.083-.042a67.114,67.114,0,0,1-16.09-2.4h0c-2.725-.842-4.261-1.738-4.375-2.414a.235.235,0,0,1,.017-.059c.068.017.144.031.213.048.391.093.792.183,1.2.269,1.987.428,4.189.779,6.535,1.047.008,0,.014,0,.021,0h0c1.6.182,3.256.325,4.958.426.013,0,.024.007.037.007s.012,0,.019,0q1.838.108,3.722.153C25.51,22.99,26.265,23,27,23c.525,0,1.063-.006,1.606-.016a76.576,76.576,0,0,0,18.686-2.315c.216-.061.427-.124.635-.187.127-.039.257-.077.38-.116.362-.116.709-.235,1.044-.359l.171-.066c.283-.107.555-.218.815-.331.075-.033.152-.065.225-.1.277-.125.545-.253.793-.386.112-.059.209-.12.314-.18s.24-.139.351-.21c.063-.04.138-.078.2-.118C56.695,19.589,57.875,20.651,57.989,21.065ZM27,5C43.489,5,51.829,7.6,51.985,9.086c-.121.676-1.656,1.569-4.374,2.409h0a67.122,67.122,0,0,1-16.09,2.4c-.359.015-.717.03-1.083.042-.3.01-.6.019-.9.027C28.706,13.987,27.866,14,27,14s-1.706-.013-2.534-.032c-.3-.007-.6-.017-.9-.027-.367-.011-.725-.027-1.083-.042a67.114,67.114,0,0,1-16.09-2.4h0c-2.719-.84-4.253-1.733-4.374-2.409C2.171,7.6,10.511,5,27,5ZM2,16V11.855a14.881,14.881,0,0,0,3,1.376v4.788C3.055,17.29,2,16.559,2,16ZM6.844,29.835c.015.016.038.03.053.046,1.369,1.382,4.2,2.468,7.733,3.278l.249.056q.388.087.788.17a77.124,77.124,0,0,0,11.325,1.436H27q2.031.118,4.153.158C31.782,34.992,32.4,35,33,35c.69,0,1.4-.008,2.118-.025,1.308-.027,2.6-.081,3.868-.155.005,0,.009,0,.014,0s.016-.005.025-.005A77.343,77.343,0,0,0,50.569,33.34,18.116,18.116,0,0,1,47.611,34.5h0A69.006,69.006,0,0,1,30.33,36.945c-.225.007-.447.015-.675.021-.245.006-.494.01-.743.015C28.283,36.991,27.65,37,27,37c-.866,0-1.706-.013-2.534-.032-.3-.007-.6-.017-.9-.027-.367-.011-.725-.027-1.083-.042a67.114,67.114,0,0,1-16.09-2.4h0c-2.75-.85-4.289-1.754-4.378-2.433C2.122,31.686,3.133,30.745,6.844,29.835ZM2,39V34.855a14.881,14.881,0,0,0,3,1.376V41l-.571-.222-.012.012C2.847,40.139,2,39.5,2,39ZM5,50V45.855a14.881,14.881,0,0,0,3,1.376v4.788C6.055,51.29,5,50.559,5,50Zm47,2.023V47.232a14.882,14.882,0,0,0,3-1.376v4.138C55,50.557,53.945,51.289,52,52.019Zm2.987-8.942c-.109.677-1.645,1.575-4.376,2.419h0a67.122,67.122,0,0,1-16.09,2.4c-.359.015-.717.03-1.083.042-.3.01-.6.019-.9.027C31.706,47.987,30.866,48,30,48s-1.707-.013-2.536-.032c-.3-.007-.6-.017-.9-.027-.369-.012-.729-.027-1.09-.042a67.122,67.122,0,0,1-16.09-2.4h0c-2.645-.817-4.173-1.685-4.365-2.355.3.1.607.205.924.3l.1.029q.4.125.829.241L7.2,43.8c.16.043.324.084.488.126A72.954,72.954,0,0,0,21,45.82H21c1.55.092,3.133.149,4.733.168C26.162,46,26.585,46,27,46c.551,0,1.115-.007,1.686-.017,1.459-.024,2.9-.078,4.307-.162l.008,0c.005,0,.008,0,.013,0,1.715-.1,3.375-.25,4.97-.433.006,0,.011,0,.017,0,.022,0,.04-.011.062-.013,1.776-.205,3.46-.457,5.023-.75.322-.059.639-.12.953-.183l.21-.043a26.87,26.87,0,0,0,7.263-2.364c.1-.052.186-.106.277-.159.111-.066.217-.133.32-.2s.207-.122.295-.185C54.378,42.2,54.922,42.826,54.987,43.077ZM55,30.019V25.232a14.881,14.881,0,0,0,3-1.376v4.138C58,28.557,56.945,29.289,55,30.019Z" transform="translate(515 1622)"/>
  </g>
</svg>
