<svg xmlns="http://www.w3.org/2000/svg" xmlns:xlink="http://www.w3.org/1999/xlink" viewBox="2881 1658 140 140"><defs><style>.a{fill:url(#a);}.b{fill:#fff;}.c{filter:url(#b);}</style><linearGradient id="a" x1="0.5" x2="0.5" y2="1" gradientUnits="objectBoundingBox"><stop offset="0" stop-color="#fcac08"/><stop offset="1" stop-color="#e39900"/></linearGradient><filter id="b" x="2881" y="1658" width="140" height="140" filterUnits="userSpaceOnUse"><feOffset dy="3" input="SourceAlpha"/><feGaussianBlur stdDeviation="3" result="c"/><feFlood flood-opacity="0.161"/><feComposite operator="in" in2="c"/><feComposite in="SourceGraphic"/></filter></defs><g transform="translate(2406 74)"><g class="c" transform="matrix(1, 0, 0, 1, -2406, -74)"><circle class="a" cx="61" cy="61" r="61" transform="translate(2890 1664)"/></g><g transform="translate(516.92 1622)"><path class="b" d="M40.076,29.153H32.934A4,4,0,0,0,30.076,26.3V16.153a1,1,0,1,0-2,0V26.3a3.992,3.992,0,1,0,4.858,4.858h7.142a1,1,0,0,0,0-2Zm-11,3a2,2,0,1,1,2-2A2,2,0,0,1,29.076,32.153Z"/><path class="b" d="M50.188,9.764l4.1,4.1a1,1,0,0,0,1.414,0A8.121,8.121,0,0,0,44.213,2.375a1,1,0,0,0,0,1.414L48.774,8.35l-1.7,1.7a26.935,26.935,0,0,0-36,0l-1.7-1.7L13.94,3.789a1,1,0,0,0,0-1.414A8.121,8.121,0,0,0,2.455,13.86a1,1,0,0,0,1.414,0l4.1-4.1L9.641,11.44A26.956,26.956,0,0,0,15.4,53.418l-3.028,3.028a1,1,0,1,0,1.414,1.414l3.45-3.45a26.938,26.938,0,0,0,23.686,0l3.45,3.45a1,1,0,0,0,1.414-1.414l-3.028-3.028A26.956,26.956,0,0,0,48.511,11.44Zm4.1-5.975a6.132,6.132,0,0,1,.649,7.893L46.391,3.14A6.13,6.13,0,0,1,54.283,3.789ZM3.22,11.681A6.122,6.122,0,0,1,11.761,3.14ZM29.076,55.153a25,25,0,1,1,25-25A25.028,25.028,0,0,1,29.076,55.153Z"/><path class="b" d="M29.076,10.032a1,1,0,0,0,1-1v-1a1,1,0,1,0-2,0v1A1,1,0,0,0,29.076,10.032Z"/><path class="b" d="M29.076,50.032a1,1,0,0,0-1,1v1a1,1,0,0,0,2,0v-1A1,1,0,0,0,29.076,50.032Z"/><path class="b" d="M50.076,31.032h1a1,1,0,0,0,0-2h-1a1,1,0,0,0,0,2Z"/><path class="b" d="M8.076,29.032h-1a1,1,0,1,0,0,2h1a1,1,0,0,0,0-2Z"/><path class="b" d="M43.926,13.768l-.707.707a1,1,0,1,0,1.414,1.414l.707-.707a1,1,0,0,0-1.414-1.414Z"/><path class="b" d="M13.52,44.174l-.707.707A1,1,0,1,0,14.227,46.3l.707-.707a1,1,0,0,0-1.414-1.414Z"/><path class="b" d="M44.633,44.174a1,1,0,0,0-1.414,1.414l.707.707a1,1,0,0,0,1.414-1.414Z"/><path class="b" d="M14.227,13.768a1,1,0,0,0-1.414,1.414l.707.707a1,1,0,1,0,1.414-1.414Z"/></g></g></svg>