<svg xmlns="http://www.w3.org/2000/svg" xmlns:xlink="http://www.w3.org/1999/xlink" viewBox="3281 1658 140 140"><defs><style>.a{fill:url(#a);}.b{fill:#fff;}.c{filter:url(#b);}</style><linearGradient id="a" x1="0.5" x2="0.5" y2="1" gradientUnits="objectBoundingBox"><stop offset="0" stop-color="#fcac08"/><stop offset="1" stop-color="#e39900"/></linearGradient><filter id="b" x="3281" y="1658" width="140" height="140" filterUnits="userSpaceOnUse"><feOffset dy="3" input="SourceAlpha"/><feGaussianBlur stdDeviation="3" result="c"/><feFlood flood-opacity="0.161"/><feComposite operator="in" in2="c"/><feComposite in="SourceGraphic"/></filter></defs><g transform="translate(2806 74)"><g class="c" transform="matrix(1, 0, 0, 1, -2806, -74)"><circle class="a" cx="61" cy="61" r="61" transform="translate(3290 1664)"/></g><g transform="translate(516 1622.5)"><path class="b" d="M42.9,4.5A5.009,5.009,0,0,0,38,.5a1,1,0,0,0,0,2,3,3,0,0,1,0,6,1,1,0,0,0,0,2,5.009,5.009,0,0,0,4.9-4H56v7H2v-7H19a1,1,0,0,0,0-2H17.184A2.995,2.995,0,1,1,20,8.5a1,1,0,0,0,0,2,5,5,0,1,0-4.9-6H0v53H58V4.5ZM30,15.5H42v12H30Zm12,26H30v-12H42Zm-26-12H28v12H16Zm0-14H28v12H16Zm-14,1v-1H14v12H2Zm0,13H14v12H2Zm0,26v-12H14v12Zm14,0v-12H28v12Zm14,0v-12H42v12Zm26,0H44v-12H56Zm0-14H44v-12H56Zm-12-14v-12H56v12Z"/><path class="b" d="M26,2.5a3,3,0,0,1,0,6,1,1,0,0,0,0,2,5,5,0,0,0,0-10,1,1,0,0,0,0,2Z"/><path class="b" d="M32,2.5a3,3,0,0,1,0,6,1,1,0,0,0,0,2,5,5,0,0,0,0-10,1,1,0,0,0,0,2Z"/><path class="b" d="M31.293,40.207a1,1,0,0,0,1.414,0L36,36.914l3.293,3.293a1,1,0,0,0,1.414-1.414L37.414,35.5l3.293-3.293a1,1,0,0,0-1.414-1.414L36,34.086l-3.293-3.293a1,1,0,0,0-1.414,1.414L34.586,35.5l-3.293,3.293A1,1,0,0,0,31.293,40.207Z"/></g></g></svg>